<!-- Generator: Adobe Illustrator 24.0.2, SVG Export Plug-In  -->
<svg version="1.1" xmlns="http://www.w3.org/2000/svg" xmlns:xlink="http://www.w3.org/1999/xlink" x="0px" y="0px"
	 width="896.84px" height="1024.2px" viewBox="0 0 896.84 1024.2" style="enable-background:new 0 0 896.84 1024.2;"
	 xml:space="preserve">
<style type="text/css">
	.st0{fill:url(#SVGID_1_);}
	.st1{fill:url(#SVGID_2_);}
</style>
<defs>
</defs>
<linearGradient id="SVGID_1_" gradientUnits="userSpaceOnUse" x1="180.2367" y1="86.6987" x2="670.1071" y2="935.1791">
	<stop  offset="0" style="stop-color:#1A374D"/>
	<stop  offset="0.1705" style="stop-color:#213F55"/>
	<stop  offset="0.4389" style="stop-color:#33566B"/>
	<stop  offset="0.7698" style="stop-color:#517A8E"/>
	<stop  offset="1" style="stop-color:#6998AB"/>
</linearGradient>
<path class="st0" d="M261.94,88.56c-9.91-9.05-8.25-46.75,4.96-49.05c76.05-13.24,447.64-69,497.45-19.18
	c44.1,44.1-76.32,214.74-122.34,285.8c-7.36,11.36,1.49,26.23,14.97,25.1c41.12-3.44,110.2-0.07,163.2,48.85
	c45.36,41.87,86.84,99.24,74.43,204.69c-5.16,43.86-21.55,157.77-102.96,247.32c-31.41,34.55-63.6,62.72-95,86
	c-115.86,85.92-226.56,97.42-273.64,100.41c-11.76,0.74-20.33-10.98-16.19-22.01l7.05-18.81c1.93-5.15,6.28-8.96,11.64-10.17
	c41.57-9.38,217.98-68.45,289.22-178.05c80.64-124.05,118.16-299.42,31.01-359.76c-35.1-21.37-124.05-49.62-167.47-6.2
	c-37.81,37.81-216.72,423.68-262.32,522.75c-4.97,10.81,2.94,23.08,14.84,23.08h13.06c11.39,0,19.27,11.37,15.27,22.04l-6.91,18.43
	c-2.14,5.7-7.25,9.75-13.29,10.46c-45.41,5.39-228.75,20.73-294.07-88.15C4.5,864.88-6.76,802.17,3.66,726.34
	c7.83-56.99,31-104,88.21-190.89c27.39-41.61,37.79-7.35,39.82,12.11c2.98,28.6-27.03,71.78-49.62,148.86
	C38.14,846.3,117.84,960.76,212.32,913.52c62.03-31.01,116.98-182.19,198.49-353.55c86.58-182.04,185.52-379.15,213.32-446.92
	c4.6-11.21-4.17-23.29-16.25-22.42C530.13,96.2,307.02,129.73,261.94,88.56z"/>
</svg>
